<?xml version="1.0" encoding="UTF-8"?>
<svg id="Layer_2" data-name="Layer 2" xmlns="http://www.w3.org/2000/svg" viewBox="0 0 650.57 132.72">
  <defs>
    <style>
      .cls-1 {
        letter-spacing: 0em;
      }

      .cls-2 {
        fill: #0a2a40;
        font-family: GeistVariable-Bold, 'Geist Variable';
        font-size: 84.69px;
        font-variation-settings: 'wght' 700;
        font-weight: 700;
      }

      .cls-3 {
        fill: #0798fe;
      }

      .cls-4 {
        fill: #3336c1;
      }

      .cls-5 {
        fill: #0004b2;
      }

      .cls-6 {
        letter-spacing: -.01em;
      }

      .cls-7 {
        letter-spacing: -.01em;
      }

      .cls-8 {
        letter-spacing: -.04em;
      }

      .cls-9 {
        letter-spacing: 0em;
      }

      .cls-10 {
        letter-spacing: 0em;
      }
    </style>
  </defs>
  <g id="Layer_1-2" data-name="Layer 1">
    <g>
      <text class="cls-2" transform="translate(160.45 115.19)"><tspan x="0" y="0">B</tspan><tspan class="cls-10" x="59.62" y="0">l</tspan><tspan x="86.73" y="0">u</tspan><tspan class="cls-6" x="138.13" y="0">m</tspan><tspan class="cls-9" x="213.26" y="0">e</tspan><tspan x="264.16" y="0">n </tspan><tspan class="cls-7" x="335.3" y="0">P</tspan><tspan class="cls-8" x="391.03" y="0">a</tspan><tspan class="cls-1" x="440.4" y="0">y</tspan></text>
      <g>
        <path class="cls-4" d="M93.17,49.55c-.26-.7-.55-1.41-.84-2.11-2.37-5.53-5.82-10.73-10.44-15.26-.82-.83-1.7-1.62-2.6-2.4-.28-.24-.58-.48-.87-.72-.18-.16-.38-.32-.58-.47-.27-.22-.56-.44-.83-.64-.38-.3-.77-.59-1.17-.87l-17.18-12.26-9.53-6.81-8.98-6.41c-1.77-1.27-4.24-.86-5.5.91l-7.78,10.88-17.71,24.8c-4.47,6.26-7.2,12.98-8.4,19.74-.16.79-.28,1.59-.37,2.38-.05.37-.1.75-.13,1.12-.13,1.19-.21,2.36-.23,3.53-.18,6.28.87,12.47,2.98,18.26.27.71.54,1.42.85,2.12,1.77,4.24,4.11,8.22,6.96,11.81l4.42-6.34,7.61-10.9,3.03-4.34c1.52-2.17,4.47-2.78,6.72-1.38l.17-.24c.37-.53,1.08-.67,1.62-.33l5.97,3.72h0s12.3,7.67,12.3,7.67l13.12-18.9-2.65-1.84c-1.45-1-2.27-2.73-2.13-4.5.14-1.77,1.23-3.35,2.84-4.11l17.43-8.21c1.42-.67,3.07-.62,4.43.09l.97-.45c.84-.39,1.79.26,1.71,1.19l-.19,2.32c.17.57.23,1.17.18,1.78h0s-1.6,19.2-1.6,19.2c-.16,1.78-1.25,3.35-2.86,4.1-1.61.75-3.51.59-4.97-.42l-2.65-1.84-18.17,26.18c-1.5,2.18-4.46,2.8-6.73,1.4l-19.26-12.02-3.21,4.6-5.56,7.96-3.23,4.63c7,5.15,15.51,8.42,25,8.89.12,0,.26.02.4.02,2.42.16,4.86.14,7.32-.09,1.93-.18,3.88-.48,5.82-.92,2.5-.56,4.99-1.35,7.46-2.36.04-.02.08-.03.12-.06.05,0,.08-.02.12-.03,6.87-2.67,12.65-6.76,17.22-11.78.01,0,.02-.02.03-.03,12.18-13.34,15.95-33.15,9.58-50.26Z"/>
        <path class="cls-5" d="M114.29,83.22c-.27.71-.55,1.42-.85,2.12-6.78,16.25-22,28.76-41.25,29.72-.13,0-.26.02-.4.02-3.01.2-6.05.12-9.11-.29-1.34-.18-2.69-.42-4.04-.72-2.5-.56-4.99-1.35-7.45-2.36-.04-.02-.08-.03-.11-.06-.05,0-.08-.02-.12-.03-4.76-1.85-8.99-4.38-12.67-7.43-1.63-1.35-3.15-2.81-4.55-4.35-.01,0-.02-.02-.03-.03-1.78-1.95-3.38-4.04-4.79-6.23l3.21-4.6,19.26,12.02c2.27,1.4,5.23.78,6.73-1.4l18.17-26.18,2.65,1.84c1.45,1.01,3.36,1.18,4.97.42,1.61-.76,2.7-2.32,2.86-4.1l1.6-19.19h0c.05-.61-.02-1.22-.18-1.79l.19-2.32c.08-.92-.87-1.58-1.71-1.19l-.97.45c-1.37-.72-3.01-.76-4.43-.09l-17.43,8.21c-1.61.76-2.69,2.34-2.84,4.11-.14,1.77.67,3.49,2.13,4.5l2.65,1.84-13.12,18.9-12.3-7.67h0s-5.97-3.72-5.97-3.72c-.54-.34-1.26-.19-1.62.33l-.17.24c-2.25-1.4-5.2-.79-6.72,1.38l-3.03,4.34c-.59-2.17-1.04-4.38-1.34-6.61-1.06-7.92-.24-16.11,2.61-23.77.26-.7.55-1.41.84-2.11,2.37-5.53,5.82-10.73,10.45-15.26.82-.83,1.7-1.62,2.6-2.4.28-.24.57-.48.87-.72.19-.16.39-.32.58-.47.28-.22.55-.44.84-.64.38-.3.77-.59,1.17-.87l17.19-12.26,9.69-6.92,8.82-6.29c1.77-1.27,4.24-.86,5.5.91l7.78,10.88,17.71,24.8c4.47,6.26,7.2,12.98,8.4,19.74.15.79.27,1.59.36,2.38.05.37.09.75.13,1.12.13,1.19.21,2.36.23,3.53.18,6.28-.87,12.47-2.98,18.26Z"/>
        <path class="cls-3" d="M85.03,106.2s-.03.02-.04.02c-5.49,3.99-11.98,6.84-19.24,8.08-.04,0-.08.02-.12.01-.04.02-.08.03-.12.03-.95.18-1.89.33-2.82.45-3.34.43-6.64.49-9.85.2-2.79-.25-5.53-.75-8.18-1.48-.13-.03-.26-.06-.39-.1-5.04-1.3-9.62-3.36-13.69-6.02-2.63-1.71-5.04-3.68-7.23-5.85l5.56-7.96,3.21-4.6,19.26,12.02c2.27,1.4,5.23.78,6.73-1.4l18.17-26.18,2.65,1.84c1.45,1.01,3.36,1.18,4.97.42,1.61-.76,2.7-2.32,2.86-4.1l1.6-19.19h0c.05-.61-.02-1.22-.18-1.79-.31-1.09-.99-2.06-1.94-2.73-.17-.12-.36-.23-.55-.33-1.37-.72-3.01-.76-4.43-.09l-17.43,8.21c-1.61.76-2.69,2.34-2.84,4.11-.14,1.77.67,3.49,2.13,4.5l2.65,1.84-13.12,18.9-.82,1.18-19.23-12s0,0,0,0c-2.25-1.4-5.2-.79-6.72,1.38l-3.03,4.34-7.61,10.9c-1.45-2.59-2.66-5.31-3.62-8.12-.75-2.18-1.35-4.42-1.79-6.69-.16-.74-.28-1.5-.41-2.25-.9-6.09-.69-12.37.75-18.48.25-1.14.56-2.27.93-3.41.11-.35.23-.71.36-1.07.25-.76.53-1.51.83-2.26,2.54-6.38,6.55-12.41,12.19-17.65l22.33-20.73,2.31-2.15,7.49-6.95c1.6-1.48,4.1-1.39,5.58.21l6.16,6.63,23.69,25.5c.33.35.66.71.97,1.09.23.26.46.52.69.79.16.18.33.39.48.58.24.28.48.59.7.87.73.94,1.43,1.89,2.07,2.87,3.63,5.37,5.96,11.16,7.17,17.05.15.75.29,1.5.4,2.24,2.81,18.04-4.87,36.7-19.48,47.31Z"/>
      </g>
    </g>
  </g>
</svg>