<?xml version="1.0" encoding="UTF-8"?>
<svg id="Layer_2" data-name="Layer 2" xmlns="http://www.w3.org/2000/svg" viewBox="0 0 309.84 304.3">
  <defs>
    <style>
      .cls-1 {
        fill: #0798fe;
      }

      .cls-2 {
        fill: #3336c1;
      }

      .cls-3 {
        fill: #0004b2;
      }
    </style>
  </defs>
  <g id="Layer_1-2" data-name="Layer 1">
    <g>
      <path class="cls-2" d="M246.13,130.89c-.69-1.85-1.44-3.73-2.23-5.58-6.25-14.62-15.37-28.35-27.59-40.32-2.17-2.2-4.49-4.27-6.88-6.33-.73-.63-1.52-1.28-2.29-1.89-.48-.41-1.01-.85-1.53-1.24-.72-.59-1.47-1.15-2.2-1.69-1.01-.8-2.04-1.55-3.1-2.3l-45.39-32.4-25.18-17.99-23.72-16.92c-4.68-3.36-11.19-2.27-14.54,2.41l-20.54,28.75L24.15,100.9c-11.82,16.55-19.01,34.29-22.18,52.14-.41,2.1-.73,4.2-.97,6.3-.14.98-.26,1.99-.35,2.95-.35,3.15-.56,6.24-.6,9.32-.48,16.58,2.3,32.95,7.87,48.24.71,1.87,1.43,3.76,2.24,5.6,4.67,11.19,10.86,21.72,18.38,31.2l11.68-16.74,20.1-28.79,8-11.47c4.02-5.74,11.81-7.35,17.76-3.65l.44-.63c.97-1.39,2.86-1.77,4.29-.88l15.76,9.83h.01s32.49,20.27,32.49,20.27l34.65-49.92-7-4.86c-3.84-2.65-5.99-7.21-5.62-11.88.38-4.68,3.25-8.84,7.49-10.86l46.04-21.7c3.76-1.76,8.1-1.65,11.71.24l2.55-1.2c2.22-1.04,4.73.7,4.53,3.14l-.51,6.12c.44,1.5.61,3.1.48,4.7v.02l-4.23,50.69c-.41,4.7-3.3,8.84-7.55,10.84-4.25,1.99-9.28,1.56-13.12-1.12l-7.01-4.87-48,69.16c-3.95,5.75-11.77,7.4-17.77,3.69l-50.87-31.74-8.49,12.16-14.69,21.04-8.54,12.23c18.49,13.6,40.96,22.24,66.03,23.49.33.02.7.05,1.06.06,6.38.43,12.84.37,19.33-.24,5.11-.47,10.25-1.27,15.37-2.42,6.6-1.49,13.18-3.56,19.7-6.24.11-.05.21-.09.31-.17.12,0,.22-.05.32-.09,18.14-7.06,33.41-17.87,45.5-31.12.03-.01.06-.06.09-.07,32.17-35.23,42.13-87.58,25.3-132.78Z"/>
      <path class="cls-3" d="M301.92,219.85c-.72,1.87-1.44,3.76-2.25,5.6-17.92,42.92-58.12,75.98-108.98,78.51-.34.02-.7.05-1.06.06-7.94.54-15.98.31-24.06-.77-3.55-.47-7.1-1.1-10.66-1.89-6.6-1.49-13.18-3.56-19.69-6.24-.11-.05-.22-.09-.3-.17-.12,0-.22-.05-.33-.09-12.57-4.89-23.76-11.58-33.47-19.64-4.31-3.57-8.32-7.41-12.03-11.48-.03-.01-.06-.06-.09-.07-4.7-5.15-8.93-10.66-12.65-16.47l8.49-12.16,50.87,31.74c6,3.71,13.82,2.06,17.77-3.69l48-69.16,7.01,4.87c3.84,2.68,8.87,3.11,13.12,1.12,4.25-2,7.14-6.14,7.55-10.84l4.23-50.69v-.02c.13-1.6-.04-3.2-.48-4.7l.51-6.12c.2-2.44-2.31-4.18-4.53-3.14l-2.55,1.2c-3.61-1.89-7.95-2-11.71-.24l-46.04,21.7c-4.24,2.02-7.11,6.18-7.49,10.86-.37,4.67,1.78,9.23,5.62,11.88l7,4.86-34.65,49.92-32.49-20.26h-.01s-15.76-9.84-15.76-9.84c-1.43-.89-3.32-.51-4.29.88l-.44.63c-5.95-3.7-13.74-2.09-17.76,3.65l-8,11.47c-1.57-5.73-2.75-11.56-3.53-17.45-2.79-20.91-.63-42.57,6.9-62.78.7-1.85,1.45-3.73,2.23-5.58,6.26-14.62,15.38-28.35,27.61-40.32,2.16-2.2,4.48-4.27,6.87-6.33.73-.63,1.51-1.28,2.29-1.89.49-.41,1.02-.85,1.53-1.24.73-.59,1.46-1.15,2.21-1.69,1-.8,2.03-1.55,3.09-2.3l45.4-32.4,25.6-18.29,23.29-16.62c4.67-3.36,11.2-2.27,14.54,2.41l20.54,28.75,46.79,65.51c11.82,16.55,19.02,34.29,22.19,52.14.4,2.1.72,4.2.96,6.3.13.98.25,1.99.35,2.95.35,3.15.55,6.24.6,9.32.48,16.58-2.3,32.95-7.86,48.24Z"/>
      <path class="cls-1" d="M224.62,280.55s-.07.05-.1.06c-14.5,10.54-31.64,18.06-50.83,21.34-.11.02-.22.04-.33.03-.1.05-.21.07-.33.09-2.5.47-4.98.88-7.46,1.18-8.83,1.14-17.53,1.29-26.03.53-7.38-.65-14.61-1.97-21.6-3.92-.35-.08-.7-.17-1.02-.26-13.32-3.43-25.42-8.88-36.17-15.91-6.94-4.53-13.31-9.72-19.09-15.45l14.69-21.04,8.49-12.16,50.87,31.74c6,3.71,13.82,2.06,17.77-3.69l48-69.16,7.01,4.87c3.84,2.68,8.87,3.11,13.12,1.12,4.25-2,7.14-6.14,7.55-10.84l4.23-50.69v-.02c.13-1.6-.04-3.2-.48-4.7-.82-2.88-2.61-5.45-5.13-7.2-.46-.32-.95-.61-1.44-.86-3.61-1.89-7.95-2-11.71-.24l-46.04,21.7c-4.24,2.02-7.11,6.18-7.49,10.86-.37,4.67,1.78,9.23,5.62,11.88l7,4.86-34.65,49.92-2.16,3.11-50.81-31.69s-.01,0-.02,0c-5.95-3.7-13.74-2.09-17.76,3.65l-8,11.47-20.1,28.79c-3.82-6.85-7.02-14.03-9.57-21.45-1.98-5.76-3.56-11.67-4.73-17.67-.43-1.96-.75-3.95-1.08-5.94-2.38-16.09-1.81-32.68,1.98-48.83.67-3,1.49-5.99,2.47-9.01.29-.92.6-1.88.94-2.82.65-2,1.39-4,2.2-5.97,6.7-16.85,17.3-32.79,32.2-46.63l59-54.77,6.11-5.67,19.79-18.37c4.22-3.91,10.82-3.67,14.73.56l16.26,17.51,62.59,67.37c.88.93,1.74,1.88,2.57,2.87.61.68,1.22,1.37,1.81,2.1.43.48.86,1.02,1.26,1.52.63.75,1.27,1.55,1.86,2.31,1.92,2.49,3.79,5,5.46,7.58,9.58,14.18,15.75,29.47,18.94,45.05.4,1.97.76,3.95,1.07,5.91,7.41,47.66-12.87,96.94-51.46,124.99Z"/>
    </g>
  </g>
</svg>